<svg width="30" height="31" viewBox="0 0 30 31" fill="none" xmlns="http://www.w3.org/2000/svg">
<rect x="0.25" y="0.277588" width="29.5" height="29.5" rx="9.75" fill="white"/>
<path fill-rule="evenodd" clip-rule="evenodd" d="M14.9614 7.52759H13.5C10.1863 7.52759 7.5 10.2139 7.5 13.5276V14.8346C9.25011 14.722 11.7034 14.4482 13.2179 13.3197C14.2764 12.531 14.7537 9.58279 14.9614 7.52759ZM7.5 15.2776V16.5276C7.5 19.8413 10.1863 22.5276 13.5 22.5276H14.8685C14.6737 20.5232 14.1956 17.6479 13.0323 16.6241C11.8533 15.5866 9.32035 15.3691 7.5 15.2776ZM15.1755 22.5276H16.5C19.8137 22.5276 22.5 19.8413 22.5 16.5276V15.1782C20.6152 15.3548 17.9864 15.8058 16.8565 16.9583C15.8712 17.9634 15.3956 20.6268 15.1755 22.5276ZM22.5 15.0002C20.7378 14.8622 18.2926 14.4601 16.8565 13.3197C16.049 12.6784 15.5605 9.63633 15.3133 7.52759H16.5C19.8137 7.52759 22.5 10.2139 22.5 13.5276V15.0002Z" fill="#323232"/>
<rect x="0.25" y="0.277588" width="29.5" height="29.5" rx="9.75" stroke="#323232" stroke-width="0.5"/>
</svg>
