<svg width="150" height="44" viewBox="0 0 150 44" fill="none" xmlns="http://www.w3.org/2000/svg">
<path d="M41.9275 30.3293V12.4807C41.9275 5.58655 36.4598 0.000366211 29.7119 0.000366211H12.2155C5.46764 0.000366211 0 5.58655 0 12.4807V30.3293C0 36.7874 4.80085 42.1011 10.9353 42.7551L23.7376 32.1277H10.0018V27.0048L23.7376 15.6144H10.5619V10.7095H31.9257V15.8324L18.1632 27.2228H31.899V32.3457L19.2834 42.8369H29.6853C36.4331 42.8369 41.9275 37.2507 41.9275 30.3293Z" fill="#181818"/>
<path d="M55.664 0.000378945H60.7049C62.9186 -0.0268707 64.5989 1.41736 64.5722 3.73359C64.5989 6.07706 62.8919 7.46679 60.7049 7.46679H57.2376V12.4262H55.6906V0.000378945H55.664ZM60.4382 5.99531C62.0651 5.99531 63.0253 5.20507 63.0253 3.73359C63.0253 2.2621 62.0918 1.44461 60.4382 1.44461H57.2376V5.99531H60.4382Z" fill="#181818"/>
<path d="M69.8265 3.37933C72.1202 3.32483 73.9606 5.31406 73.9339 7.98452C73.9606 10.655 72.1202 12.6442 69.8265 12.5897C67.5594 12.6442 65.6924 10.655 65.7191 7.98452C65.6924 5.31406 67.5594 3.32483 69.8265 3.37933ZM69.9065 11.3362C71.3734 11.3362 72.467 10.0827 72.467 7.98452C72.467 5.8863 71.3734 4.63281 69.9065 4.63281H69.7465C68.2796 4.63281 67.186 5.8863 67.186 7.98452C67.186 10.0827 68.2796 11.3362 69.7465 11.3362H69.9065Z" fill="#181818"/>
<path d="M79.6429 3.3793C81.5899 3.3793 82.9768 4.55104 83.1368 6.45852H81.6699C81.5899 5.91352 81.3765 5.47753 81.0298 5.15053C80.6831 4.82353 80.2563 4.66004 79.7229 4.66004H79.5629C77.8826 4.63279 77.0024 6.18602 77.0024 8.01175C76.9757 9.81023 77.8826 11.3907 79.5629 11.3635H79.7229C80.2297 11.3635 80.6564 11.2 81.0031 10.873C81.3499 10.546 81.5632 10.0827 81.6699 9.56498H83.1368C82.9235 11.4452 81.5899 12.6442 79.6429 12.6442C77.0824 12.6714 75.5088 10.655 75.5355 8.039C75.5088 5.36853 77.0824 3.35205 79.6429 3.3793Z" fill="#181818"/>
<path d="M88.8165 3.37936C90.7635 3.37936 92.1505 4.5511 92.3105 6.45858H90.8436C90.7635 5.91358 90.5502 5.47759 90.2034 5.15059C89.8567 4.8236 89.43 4.6601 88.8965 4.6601H88.7365C87.0562 4.63285 86.1761 6.18608 86.1761 8.01181C86.1494 9.81029 87.0562 11.3908 88.7365 11.3635H88.8965C89.4033 11.3635 89.83 11.2 90.1768 10.873C90.5235 10.546 90.7369 10.0828 90.8436 9.56504H92.3105C92.0971 11.4453 90.7635 12.6443 88.8165 12.6443C86.2561 12.6715 84.6825 10.655 84.7091 8.03906C84.6825 5.36859 86.2561 3.35211 88.8165 3.37936Z" fill="#181818"/>
<path d="M102.099 3.54285V12.399H100.632V5.17783L96.445 12.4262H94.418V3.54285H95.8849V10.8458L100.152 3.54285H102.099Z" fill="#181818"/>
<path d="M112.447 3.54283V12.399H110.98V5.17781L106.793 12.4262H104.766V3.54283H106.233V10.8457L110.5 3.54283H112.447ZM107.273 0.000366211C107.353 0.926856 107.779 1.36285 108.526 1.36285C109.326 1.36285 109.727 0.899606 109.78 0.000366211H111.06C111.06 1.58085 110.1 2.34384 108.5 2.34384C106.899 2.34384 105.966 1.6081 105.939 0.000366211H107.273Z" fill="#181818"/>
<path d="M118.69 3.3793C120.637 3.3793 122.024 4.55104 122.184 6.45852H120.717C120.637 5.91352 120.423 5.47753 120.077 5.15053C119.73 4.82353 119.303 4.66004 118.77 4.66004H118.61C116.929 4.63279 116.049 6.18602 116.049 8.01175C116.023 9.81023 116.929 11.3907 118.61 11.3635H118.77C119.277 11.3635 119.703 11.2 120.05 10.873C120.397 10.546 120.61 10.0827 120.717 9.56498H122.184C121.97 11.4452 120.637 12.6442 118.69 12.6442C116.129 12.6714 114.556 10.655 114.582 8.039C114.556 5.36853 116.129 3.35205 118.69 3.3793Z" fill="#181818"/>
<path d="M127.276 8.12079L125.756 9.64678V12.4262H124.289V3.54285H125.756V7.93005L129.997 3.54285H131.837L128.343 7.05806L132.024 12.4262H130.237L127.276 8.12079Z" fill="#181818"/>
<path d="M136.666 3.37933C138.96 3.32483 140.8 5.31406 140.774 7.98452C140.8 10.655 138.96 12.6442 136.666 12.5897C134.399 12.6442 132.532 10.655 132.559 7.98452C132.532 5.31406 134.399 3.32483 136.666 3.37933ZM136.746 11.3362C138.213 11.3362 139.307 10.0827 139.307 7.98452C139.307 5.8863 138.213 4.63281 136.746 4.63281H136.586C135.119 4.63281 134.026 5.8863 134.026 7.98452C134.026 10.0827 135.119 11.3362 136.586 11.3362H136.746Z" fill="#181818"/>
<path d="M146.372 3.37936C148.532 3.35211 150.026 5.04159 149.999 7.30331V8.20255H143.865C143.918 10.3008 145.172 11.3635 146.399 11.3363H146.532C147.519 11.3363 148.292 10.8185 148.506 9.83753H149.973C149.653 11.6088 148.212 12.617 146.399 12.617C144.212 12.6442 142.345 10.982 142.371 7.98455C142.345 5.01434 144.292 3.35211 146.372 3.37936ZM148.506 6.97632C148.452 5.45033 147.572 4.63284 146.425 4.63284H146.265C145.225 4.63284 144.185 5.28684 143.918 6.97632H148.506Z" fill="#181818"/>
<path d="M58.971 18.5847C61.2647 18.5302 63.105 20.5194 63.0784 23.1898C63.105 25.8603 61.2647 27.8495 58.971 27.795C56.7039 27.8495 54.8369 25.8603 54.8636 23.1898C54.8369 20.5194 56.7039 18.5302 58.971 18.5847ZM59.051 26.5416C60.5179 26.5416 61.6114 25.2881 61.6114 23.1898C61.6114 21.0916 60.5179 19.8381 59.051 19.8381H58.8909C57.424 19.8381 56.3305 21.0916 56.3305 23.1898C56.3305 25.2881 57.424 26.5416 58.8909 26.5416H59.051Z" fill="#181818"/>
<path d="M65.132 19.2387C65.2654 18.3939 65.5321 17.7127 65.9322 17.2222C66.5456 16.4319 67.5591 16.0232 68.946 16.0232H70.8664C71.4798 16.0232 71.6932 15.8324 71.6932 15.3692V15.0695H73.0801V15.5872C73.0801 16.8134 72.5733 17.3312 71.0797 17.3312H68.8927C66.9723 17.3312 66.2522 18.3667 66.1722 20.7374C66.759 19.8382 67.9858 19.0752 69.2927 19.0752C71.4265 19.0479 73.1334 20.7374 73.1068 23.2716C73.1334 25.8058 71.4265 27.8223 69.0527 27.7951C66.3856 27.7951 64.9453 25.8058 64.9453 22.4814C64.9453 21.1734 65.0253 20.0834 65.132 19.2387ZM69.1327 26.5416C70.653 26.5688 71.6398 25.0973 71.6132 23.2989C71.6132 21.5004 70.5997 20.2196 69.1327 20.2196H69.026C67.5858 20.2196 66.4656 21.4186 66.4656 23.1626C66.4656 25.1246 67.4791 26.5416 69.026 26.5416H69.1327Z" fill="#181818"/>
<path d="M88.6046 26.3781V30.0023H87.2176V27.6316H75.2422V18.7482H76.7091V26.3781H80.4431V18.7482H81.91V26.3781H85.644V18.7482H87.111V26.3781H88.6046Z" fill="#181818"/>
<path d="M93.6983 18.5847C95.8586 18.5574 97.3522 20.2469 97.3256 22.5086V23.4079H91.1911C91.2445 25.5061 92.498 26.5688 93.7249 26.5416H93.8583C94.8451 26.5416 95.6186 26.0238 95.832 25.0429H97.2989C96.9788 26.8141 95.5386 27.8223 93.7249 27.8223C91.5379 27.8496 89.6709 26.1873 89.6975 23.1899C89.6709 20.2197 91.6179 18.5574 93.6983 18.5847ZM95.832 22.1816C95.7786 20.6557 94.8985 19.8382 93.7516 19.8382H93.5916C92.5514 19.8382 91.5112 20.4922 91.2445 22.1816H95.832Z" fill="#181818"/>
<path d="M103.084 18.5846C105.031 18.5846 106.418 19.7564 106.578 21.6638H105.111C105.031 21.1188 104.818 20.6828 104.471 20.3559C104.124 20.0289 103.698 19.8654 103.164 19.8654H103.004C101.324 19.8381 100.444 21.3913 100.444 23.2171C100.417 25.0155 101.324 26.596 103.004 26.5688H103.164C103.671 26.5688 104.098 26.4053 104.445 26.0783C104.791 25.7513 105.005 25.288 105.111 24.7703H106.578C106.365 26.6505 105.031 27.8495 103.084 27.8495C100.524 27.8768 98.9502 25.8603 98.9769 23.2443C98.9502 20.5739 100.524 18.5574 103.084 18.5846Z" fill="#181818"/>
<path d="M114.714 20.0016H111.834V27.6315H110.367V20.0016H107.487V18.7754H114.714V20.0016Z" fill="#181818"/>
<path d="M116.314 18.7482H120.395C122.182 18.7482 123.169 19.7019 123.169 21.0099C123.169 22.0726 122.582 22.7811 121.595 23.1081C122.476 23.1899 123.409 23.9529 123.409 25.0973C123.436 26.5143 122.209 27.6316 120.502 27.6316H116.341V18.7482H116.314ZM120.208 22.5086C121.115 22.5086 121.675 21.9909 121.675 21.1461C121.675 20.3286 121.115 19.9199 120.075 19.9199H117.781V22.5359H120.208V22.5086ZM120.182 26.4598C121.329 26.4598 121.889 25.9421 121.889 25.0156C121.889 24.2526 121.329 23.7349 120.235 23.7349H117.808V26.4871H120.182V26.4598Z" fill="#181818"/>
<path d="M129.117 18.5847C131.411 18.5302 133.252 20.5194 133.225 23.1898C133.252 25.8603 131.411 27.8495 129.117 27.795C126.85 27.8495 124.983 25.8603 125.01 23.1898C124.983 20.5194 126.85 18.5302 129.117 18.5847ZM129.197 26.5416C130.664 26.5416 131.758 25.2881 131.758 23.1898C131.758 21.0916 130.664 19.8381 129.197 19.8381H129.037C127.57 19.8381 126.477 21.0916 126.477 23.1898C126.477 25.2881 127.57 26.5416 129.037 26.5416H129.197Z" fill="#181818"/>
<path d="M63.7721 37.4687C64.1988 37.9319 64.4122 38.5314 64.4122 39.2671C64.4122 41.6106 62.5719 43.0003 59.7447 43.0003C56.6508 43.0003 54.9172 41.4744 54.7305 38.7494H57.0776C57.2909 40.1936 58.1711 40.8749 59.798 40.8749C61.2916 40.8749 62.0651 40.3026 62.0651 39.2126C62.0651 38.1772 61.345 37.6322 59.9847 37.6322H58.3311V35.5067H59.8781C61.2116 35.5067 61.9317 34.8799 61.9317 33.8445C61.9317 32.918 61.1583 32.3457 59.7714 32.3457C58.9712 32.3457 58.3845 32.5365 57.9577 32.9452C57.531 33.354 57.2909 33.899 57.2109 34.5257H54.8638C54.8905 33.8717 55.0772 33.2177 55.3973 32.5637C55.7173 31.9097 56.2774 31.3647 56.9975 30.9015C57.7177 30.4655 58.6245 30.2475 59.718 30.2475C62.6519 30.2475 64.2522 31.6917 64.2522 33.8445C64.2522 35.0979 63.5054 36.1334 62.1451 36.5422C62.8119 36.7057 63.372 37.0054 63.7721 37.4687Z" fill="#181818"/>
<path d="M66.3867 33.9535H68.6538V37.3052H72.0144V33.9535H74.2815V42.8096H72.0144V39.1582H68.6538V42.8096H66.3867V33.9535Z" fill="#181818"/>
<path d="M76.0948 38.3952C76.0681 35.425 77.8818 33.7628 79.8288 33.79C81.1357 33.79 82.0425 34.4167 82.4426 35.207V33.9807H84.7097V42.8369H82.4159V41.6107C81.9625 42.4009 81.0824 43.0276 79.8021 43.0276C78.0418 43.0276 76.0415 41.3654 76.0948 38.3952ZM80.4422 41.1474C81.5358 41.1474 82.4159 40.1119 82.4159 38.3952C82.4159 36.6785 81.5358 35.643 80.4422 35.643H80.3089C79.242 35.6157 78.3352 36.842 78.3352 38.368C78.3085 39.9212 79.242 41.1474 80.3089 41.1202H80.4422V41.1474Z" fill="#181818"/>
<path d="M87.002 33.9535H89.269V37.3052H92.6296V33.9535H94.8967V42.8096H92.6296V39.1582H89.269V42.8096H87.002V33.9535Z" fill="#181818"/>
<path d="M105.646 33.9535V42.8096H103.379V36.406L100.205 42.8096H97.1913V33.9535H99.4584V40.2754L102.632 33.9535H105.646Z" fill="#181818"/>
<path d="M107.487 38.3952C107.461 35.7519 109.061 33.7627 111.621 33.79C114.155 33.7627 115.595 35.6974 115.569 38.2862C115.569 38.4497 115.569 38.7494 115.542 39.1309H109.674C109.754 40.3299 110.688 41.1474 111.621 41.1474H111.755C112.582 41.1474 113.115 40.6841 113.275 40.0301H115.515C115.089 41.8014 113.728 43.0004 111.595 43.0004C109.434 43.0276 107.434 41.2291 107.487 38.3952ZM113.382 37.3597C113.328 36.3242 112.555 35.6702 111.595 35.6702H111.461C110.501 35.6702 109.728 36.3242 109.674 37.3597H113.382Z" fill="#181818"/>
</svg>
