<svg width="32" height="32" viewBox="0 0 32 32" fill="none" xmlns="http://www.w3.org/2000/svg">
<path d="M16 31.0276C24.2843 31.0276 31 24.3118 31 16.0276C31 7.74334 24.2843 1.02759 16 1.02759C7.71575 1.02759 1 7.74334 1 16.0276C1 24.3118 7.71575 31.0276 16 31.0276Z" fill="white" stroke="#323232"/>
<path d="M6.58856 16.762C8.34205 15.7961 10.2994 14.99 12.1283 14.1797C15.2747 12.8526 18.4335 11.5485 21.6243 10.3343C22.2451 10.1275 23.3605 9.92514 23.4699 10.8451C23.41 12.1474 23.1637 13.442 22.9947 14.7366C22.5657 17.5836 22.07 20.4209 21.5865 23.2585C21.42 24.2037 20.2359 24.693 19.4783 24.0881C17.6575 22.8583 15.8228 21.6404 14.0253 20.382C13.4365 19.7837 13.9825 18.9245 14.5084 18.4973C16.008 17.0194 17.5984 15.7638 19.0196 14.2095C19.403 13.2837 18.2702 14.064 17.8966 14.303C15.8436 15.7178 13.8409 17.2189 11.6764 18.4623C10.5707 19.0709 9.28211 18.5508 8.17698 18.2111C7.1861 17.8009 5.73408 17.3876 6.58846 16.762L6.58856 16.762Z" fill="#323232" stroke="#323232"/>
</svg>
