<svg width="32" height="32" viewBox="0 0 32 32" fill="none" xmlns="http://www.w3.org/2000/svg">
<path fill-rule="evenodd" clip-rule="evenodd" d="M11.3952 1.02759H20.6048C29.0099 1.02759 31 3.0177 31 11.4228V20.6324C31 29.0375 29.0099 31.0276 20.6048 31.0276H11.3952C2.99012 31.0276 1 29.0375 1 20.6324V11.4228C1 3.0177 2.99012 1.02759 11.3952 1.02759Z" fill="white" stroke="#323232"/>
<path fill-rule="evenodd" clip-rule="evenodd" d="M25.5217 10.6025C25.6699 10.1367 25.5217 9.79799 24.8654 9.79799H22.6847C22.1342 9.79799 21.8802 10.0944 21.732 10.412C21.732 10.412 20.6099 13.1219 19.0432 14.8791C18.535 15.3872 18.3022 15.5566 18.027 15.5566C17.8787 15.5566 17.6882 15.3872 17.6882 14.9215V10.5813C17.6882 10.0309 17.5189 9.7768 17.053 9.7768H13.6233C13.2845 9.7768 13.0729 10.0309 13.0729 10.2849C13.0729 10.8142 13.8562 10.9412 13.9409 12.4232V15.6413C13.9409 16.34 13.8139 16.467 13.5386 16.467C12.7976 16.467 10.998 13.7359 9.9183 10.6237C9.70655 10.0097 9.49486 9.7768 8.94442 9.7768H6.74255C6.10742 9.7768 6.00156 10.0732 6.00156 10.3908C6.00156 10.9624 6.74255 13.8417 9.45249 17.6526C11.2521 20.2567 13.8139 21.654 16.1215 21.654C17.5189 21.654 17.6882 21.3364 17.6882 20.8072V18.8382C17.6882 18.203 17.8152 18.0972 18.2599 18.0972C18.5774 18.0972 19.149 18.2666 20.4405 19.5157C21.9225 20.9977 22.1765 21.6752 23.0022 21.6752H25.1829C25.818 21.6752 26.1145 21.3576 25.9451 20.7436C25.7545 20.1297 25.0347 19.2405 24.1032 18.1819C23.595 17.5891 22.8329 16.9328 22.6 16.6152C22.2824 16.1918 22.3671 16.0224 22.6 15.6413C22.5789 15.6413 25.2464 11.8728 25.5217 10.6025Z" fill="#323232" stroke="#323232"/>
</svg>
