<svg width="32" height="32" viewBox="0 0 32 32" fill="none" xmlns="http://www.w3.org/2000/svg">
<path d="M1 16.0276C1 7.74332 7.71573 1.02759 16 1.02759C24.2843 1.02759 31 7.74332 31 16.0276C31 24.3119 24.2843 31.0276 16 31.0276C7.71573 31.0276 1 24.3119 1 16.0276Z" fill="white" stroke="#323232" stroke-width="0.5"/>
<path d="M23.6656 12.3233C23.4816 11.6165 22.9395 11.0598 22.251 10.8709C21.0034 10.5276 16 10.5276 16 10.5276C16 10.5276 10.9966 10.5276 9.74891 10.8709C9.06045 11.0598 8.51827 11.6165 8.33427 12.3233C8 13.6045 8 16.2776 8 16.2776C8 16.2776 8 18.9506 8.33427 20.2318C8.51827 20.9387 9.06045 21.4953 9.74891 21.6843C10.9966 22.0276 16 22.0276 16 22.0276C16 22.0276 21.0034 22.0276 22.251 21.6843C22.9395 21.4953 23.4816 20.9387 23.6656 20.2318C24 18.9506 24 16.2776 24 16.2776C24 16.2776 24 13.6045 23.6656 12.3233Z" fill="#323232"/>
<path d="M23.6656 12.3233C23.4816 11.6165 22.9395 11.0598 22.251 10.8709C21.0034 10.5276 16 10.5276 16 10.5276C16 10.5276 10.9966 10.5276 9.74891 10.8709C9.06045 11.0598 8.51827 11.6165 8.33427 12.3233C8 13.6045 8 16.2776 8 16.2776C8 16.2776 8 18.9506 8.33427 20.2318C8.51827 20.9387 9.06045 21.4953 9.74891 21.6843C10.9966 22.0276 16 22.0276 16 22.0276C16 22.0276 21.0034 22.0276 22.251 21.6843C22.9395 21.4953 23.4816 20.9387 23.6656 20.2318C24 18.9506 24 16.2776 24 16.2776C24 16.2776 24 13.6045 23.6656 12.3233" stroke="#323232" stroke-width="0.5"/>
<path d="M14.5 19.0276V14.0276L18.5 16.5277L14.5 19.0276Z" fill="white" stroke="#323232" stroke-width="0.5"/>
</svg>
